<?xml version="1.0" encoding="UTF-8"?>
<svg version="1.1" xmlns="http://www.w3.org/2000/svg" width="512" height="512">
<path d="M0 0 C2.02730839 -0.03395403 4.05446225 -0.07851167 6.08132935 -0.13275146 C11.54798419 -0.24599629 17.00275177 -0.20292507 22.46959305 -0.12327433 C28.21237303 -0.05956024 33.95419738 -0.11879236 39.69702148 -0.15792847 C49.33859518 -0.20329909 58.97536808 -0.14380097 68.61621094 -0.02441406 C79.73265011 0.11166429 90.83763004 0.06758224 101.95379162 -0.0700742 C111.53061202 -0.18387892 121.10400041 -0.19937456 130.68127918 -0.13410747 C136.38715549 -0.09530795 142.08766082 -0.08939142 147.79318237 -0.17251968 C153.16341253 -0.24531077 158.51902912 -0.19383087 163.8876915 -0.05016327 C165.84525214 -0.0173774 167.80406584 -0.02615917 169.76111221 -0.08172989 C177.30870206 -0.27613131 183.92448007 0.05224239 189.74255216 5.31727123 C203.34281798 20.86441624 204.65335847 38.81927291 204.38761723 58.47422147 C204.35098024 62.42684476 204.40225179 66.37860169 204.4412384 70.33106995 C204.50350333 78.03640732 204.48627287 85.73949984 204.43902377 93.44486514 C204.40215573 99.71428671 204.3955466 105.98309305 204.40970421 112.25260162 C204.41171398 113.15069432 204.41372375 114.04878702 204.41579443 114.97409464 C204.4200187 116.79947511 204.42431622 118.6248554 204.4286861 120.45023552 C204.46612547 137.49419531 204.41301687 154.53692542 204.32746472 171.58065167 C204.25632867 186.15912366 204.2610256 200.73595323 204.3215332 215.31445312 C204.3920285 232.31057837 204.41677516 249.30575132 204.36870021 266.30198693 C204.36367114 268.11878715 204.35869269 269.93558751 204.35376549 271.752388 C204.35008322 273.09268962 204.35008322 273.09268962 204.34632656 274.46006803 C204.33217155 280.71345787 204.34982235 286.96628004 204.38010597 293.21959686 C204.41612186 300.85273415 204.40099037 308.48383081 204.32312349 316.11668602 C204.28470145 320.00097524 204.26732163 323.88194752 204.31215668 327.76624489 C204.51918235 347.33831786 201.88090175 361.18924768 188.44140625 376.23486328 C186.41894229 378.25732725 182.2547926 377.4132264 179.47850037 377.42913818 C178.63391158 377.43775383 177.78932279 377.44636948 176.9191404 377.45524621 C174.06647661 377.48282369 171.2138104 377.50296401 168.36108398 377.52294922 C166.32467912 377.54066113 164.28827675 377.55866305 162.25187683 377.57693481 C143.63977107 377.73612228 125.02691705 377.82030857 106.41427517 377.88692856 C92.65025939 377.93718046 78.88743433 378.02311824 65.123959 378.15554976 C55.45342966 378.2454733 45.78322749 378.29336367 36.11229855 378.31050706 C30.33335001 378.32198317 24.55592287 378.35238861 18.7774334 378.42845917 C13.3374879 378.49930127 7.89981772 378.51813844 2.45947456 378.49734116 C0.46476815 378.49876914 -1.5300285 378.51899744 -3.52432251 378.55958176 C-18.48468897 378.84834546 -18.48468897 378.84834546 -23.31837273 375.08777618 C-25.45782831 372.22614762 -26.95030635 369.4273666 -28.55859375 366.23486328 C-29.12566032 365.4564842 -29.69272689 364.67810513 -30.2769773 363.87613881 C-35.63819515 356.41436896 -36.57664059 350.73720616 -36.50131226 341.66610718 C-36.51513572 340.32558802 -36.53196475 338.98509712 -36.55150759 337.64464915 C-36.59595875 333.98915706 -36.59730162 330.33476932 -36.59093881 326.67905998 C-36.59157075 322.7249064 -36.63230929 318.77112385 -36.66741943 314.81715393 C-36.72926025 307.0785026 -36.75236113 299.34020941 -36.7597311 291.60133158 C-36.76580722 285.30121974 -36.78259712 279.00122803 -36.80681229 272.70116043 C-36.87418626 254.79736527 -36.91112017 236.89386126 -36.91069596 218.98993866 C-36.91067899 218.02597863 -36.91066202 217.0620186 -36.91064453 216.06884766 C-36.91062068 215.1036949 -36.91059682 214.13854215 -36.91057225 213.14414234 C-36.91207926 197.53479283 -36.98680893 181.92676647 -37.09483425 166.31782417 C-37.2051453 150.24962263 -37.25861713 134.18206749 -37.25461352 118.1134783 C-37.25354371 109.1087088 -37.27520002 100.10538447 -37.35850143 91.10096359 C-37.42909104 83.42676966 -37.44629138 75.75463064 -37.39770679 68.08023082 C-37.37445151 64.17493366 -37.37379559 60.27359834 -37.44088364 56.3687191 C-37.74502472 37.39464752 -35.9296821 20.22179728 -22.86152959 5.31471419 C-16.25761851 -0.64947736 -8.42310715 -0.23917579 0 0 Z M59.89990234 117.22558594 C58.00977526 121.12543635 56.24111669 125.01922236 54.640625 129.04736328 C54.28690826 129.9174704 53.93319153 130.78757751 53.5687561 131.68405151 C52.41372195 134.53100037 51.27086855 137.38264853 50.12890625 140.23486328 C49.33354047 142.20792993 48.5375543 144.1807466 47.7409668 146.15332031 C46.51976539 149.17803373 45.29939301 152.20305906 44.08253479 155.22952271 C41.39957882 161.8955605 38.66075695 168.5359694 35.88671875 175.16455078 C34.84117458 177.67933654 33.79711484 180.19473174 32.7538147 182.71044922 C32.09056017 184.30201717 31.42245158 185.89157149 30.74935913 187.47900391 C29.81670201 189.68130638 28.9025585 191.89046198 27.9921875 194.10205078 C27.71605621 194.74077118 27.43992493 195.37949158 27.15542603 196.03756714 C25.50083389 200.12305518 25.01051292 203.01939392 26.44140625 207.23486328 C29.70779932 210.03994115 33.95801673 209.49042746 38.05078125 209.43017578 C38.77759094 209.42734589 39.50440063 209.42451599 40.25323486 209.42160034 C42.56612876 209.41043851 44.87863013 209.3853418 47.19140625 209.35986328 C48.76301523 209.34982829 50.33463029 209.34070335 51.90625 209.33251953 C55.75145247 209.31051233 59.59636289 209.27601044 63.44140625 209.23486328 C63.23255547 210.10118881 63.23255547 210.10118881 63.01948547 210.98501587 C61.54098818 217.11915798 60.06451889 223.2537859 58.58911133 229.38867188 C58.04175635 231.663531 57.49392221 233.9382749 56.94555664 236.21289062 C55.35499647 242.81130979 53.77349628 249.411781 52.20611572 256.01574707 C51.69835871 258.15319782 51.18856853 260.29016665 50.67669678 262.42663574 C49.95868289 265.43118439 49.25129578 268.43804015 48.546875 271.44580078 C48.2256945 272.77896835 48.2256945 272.77896835 47.89802551 274.1390686 C46.79234921 278.91680192 46.05955925 283.2936432 46.44140625 288.23486328 C47.92271293 290.47095326 47.92271293 290.47095326 50.44140625 291.23486328 C55.76914301 290.12431325 57.81894769 288.08871395 60.94140625 283.73486328 C61.80999109 282.55038361 62.67985579 281.36684175 63.55078125 280.18408203 C64.2459082 279.22767822 64.2459082 279.22767822 64.95507812 278.25195312 C67.62644899 274.62664661 70.4164525 271.09358585 73.19140625 267.54736328 C74.39100343 266.00729339 75.59021763 264.46692512 76.7890625 262.92626953 C77.39121582 262.15299316 77.99336914 261.3797168 78.61376953 260.58300781 C80.43127223 258.24788345 82.24716413 255.91151618 84.0625 253.57470703 C89.7775009 246.21894278 95.50358339 238.8725844 101.26513672 231.55322266 C106.13959246 225.35613036 110.97647128 219.12992941 115.8125 212.90283203 C118.25742577 209.75519688 120.70839605 206.61240673 123.1640625 203.47314453 C126.09226957 199.72887339 129.00584876 195.9736596 131.90966797 192.21044922 C133.3058829 190.40965687 134.71755783 188.622253 136.1328125 186.83642578 C136.87402344 185.87478516 137.61523438 184.91314453 138.37890625 183.92236328 C139.00667969 183.12185547 139.63445312 182.32134766 140.28125 181.49658203 C141.67391871 179.26093448 141.67391871 179.26093448 141.2578125 176.56689453 C140.57683181 174.08112324 140.57683181 174.08112324 138.44140625 172.23486328 C135.71654897 172.05968581 133.09481263 172.00337195 130.37109375 172.03955078 C129.17675217 172.04379562 129.17675217 172.04379562 127.95828247 172.04812622 C125.41083862 172.05933688 122.86374414 172.08444266 120.31640625 172.10986328 C118.5911509 172.11989195 116.86589006 172.129018 115.140625 172.13720703 C110.90741711 172.15927906 106.67447095 172.19381462 102.44140625 172.23486328 C102.66024979 171.71614151 102.87909332 171.19741974 103.10456848 170.66297913 C105.39609153 165.22956619 107.68288993 159.79418204 109.96704102 154.35766602 C110.81838669 152.33307524 111.67090751 150.30897817 112.5246582 148.28540039 C113.75656711 145.3649205 114.98414068 142.44264991 116.2109375 139.52001953 C116.58918167 138.62589859 116.96742584 137.73177765 117.35713196 136.81056213 C119.64051197 131.35669893 121.6608658 125.87326814 123.44140625 120.23486328 C121.19070322 117.00398951 119.7894845 115.48503914 115.84811401 114.75360107 C112.50460068 114.57203196 109.19217084 114.54223973 105.84375 114.57080078 C104.61733292 114.56601715 103.39091583 114.56123352 102.12733459 114.55630493 C99.53759476 114.55290574 96.94781203 114.56210922 94.3581543 114.58300781 C90.38949215 114.60979184 86.42365281 114.58324441 82.45507812 114.55126953 C79.93879583 114.55457317 77.42251529 114.56097845 74.90625 114.57080078 C73.71764877 114.56067963 72.52904755 114.55055847 71.3044281 114.54013062 C65.15011772 114.48059367 65.15011772 114.48059367 59.89990234 117.22558594 Z " fill="#000000" transform="translate(172.55859375,100.76513671875)"/>
<path d="M0 0 C1.6874269 0.00015917 3.37485866 0.00585622 5.06225586 0.01586914 C6.39189613 0.01799156 6.39189613 0.01799156 7.74839783 0.02015686 C10.59133215 0.02577324 13.43418892 0.03832848 16.27709961 0.05102539 C18.19962452 0.05603828 20.12215065 0.06060155 22.04467773 0.06469727 C26.7680151 0.07574798 31.49129419 0.09302356 36.21459961 0.11352539 C33.20233338 8.41282613 30.06909338 16.62798471 26.53100586 24.71899414 C26.22311127 25.42589386 25.91521667 26.13279358 25.59799194 26.8611145 C24.33727849 29.74984364 23.07284349 32.63668168 21.79101562 35.51611328 C20.8381911 37.66204394 19.9021586 39.814667 18.96850586 41.96899414 C18.67593399 42.61482956 18.38336212 43.26066498 18.08192444 43.92607117 C16.4721727 47.68008812 15.74677429 50.21715724 17.21459961 54.11352539 C20.15871988 55.58558552 23.17745876 55.35159731 26.40991211 55.42993164 C27.11735565 55.45071274 27.82479919 55.47149384 28.55368042 55.49290466 C30.81555386 55.55833617 33.07754423 55.61725513 35.33959961 55.67602539 C36.87216383 55.71921672 38.40471618 55.76283121 39.93725586 55.80688477 C43.69625034 55.91401094 47.45536253 56.01529629 51.21459961 56.11352539 C49.86341116 59.01208794 48.3176132 61.43696264 46.34350586 63.94946289 C45.7750293 64.67649414 45.20655273 65.40352539 44.62084961 66.15258789 C44.01241211 66.92344727 43.40397461 67.69430664 42.77709961 68.48852539 C41.83157227 69.69508789 41.83157227 69.69508789 40.86694336 70.92602539 C38.98620653 73.32453593 37.10094088 75.71942135 35.21459961 78.11352539 C34.25474464 79.33470702 33.29508724 80.55604399 32.33569336 81.77758789 C31.02232988 83.4494497 29.70866414 85.12106705 28.39379883 86.79174805 C22.91949895 93.75020027 17.49282847 100.74571724 12.0612793 107.73754883 C10.14753024 110.19981823 8.23207482 112.66075174 6.31616211 115.12133789 C5.68170166 115.93634766 5.04724121 116.75135742 4.39355469 117.59106445 C3.17748797 119.15310175 1.96119085 120.7149597 0.74462891 122.27661133 C0.19460205 122.98333984 -0.3554248 123.69006836 -0.92211914 124.41821289 C-1.40382568 125.03680176 -1.88553223 125.65539062 -2.38183594 126.29272461 C-3.86746335 128.21998313 -5.32942704 130.16379652 -6.78540039 132.11352539 C-7.44540039 131.78352539 -8.10540039 131.45352539 -8.78540039 131.11352539 C-8.63506348 130.49013779 -8.48472656 129.86675018 -8.32983398 129.22447205 C-6.76319079 122.72140039 -5.20764588 116.21574504 -3.65844727 109.70849609 C-3.07924591 107.2820376 -2.49724164 104.85624635 -1.91235352 102.43115234 C-1.07093967 98.94028659 -0.23971706 95.44712587 0.58959961 91.95336914 C0.85208496 90.87393539 1.11457031 89.79450165 1.38500977 88.68235779 C3.24665001 80.9714283 3.24665001 80.9714283 3.21459961 73.11352539 C-0.34143407 70.74283627 -2.96533384 70.76887431 -7.07836914 70.69946289 C-7.78439774 70.68009674 -8.49042633 70.66073059 -9.21784973 70.64077759 C-11.46941101 70.58107315 -13.72102367 70.53463399 -15.97290039 70.48852539 C-17.50091728 70.4503371 -19.02891284 70.41128487 -20.55688477 70.37133789 C-24.29954974 70.27537943 -28.04231549 70.19131528 -31.78540039 70.11352539 C-31.16877625 64.73947476 -29.37920066 60.26162243 -27.28540039 55.33227539 C-26.75734802 54.06746338 -26.75734802 54.06746338 -26.21862793 52.77709961 C-25.08008663 50.05340757 -23.93284614 47.33347653 -22.78540039 44.61352539 C-22.00544283 42.75247402 -21.2261467 40.8911453 -20.44750977 39.02954102 C-19.29250568 36.26836506 -18.13706258 33.50738412 -16.97912598 30.74743652 C-13.66143349 22.83757433 -10.41284836 14.90120061 -7.21118164 6.94360352 C-4.45108581 0.13348951 -4.45108581 0.13348951 0 0 Z " fill="#000000" transform="translate(244.785400390625,227.886474609375)"/>
<path d="M0 0 C66.66 0 133.32 0 202 0 C202 7.26 202 14.52 202 22 C135.34 22 68.68 22 0 22 C0 14.74 0 7.48 0 0 Z " fill="#000000" transform="translate(155,490)"/>
<path d="M0 0 C66.66 0 133.32 0 202 0 C202 7.26 202 14.52 202 22 C135.34 22 68.68 22 0 22 C0 14.74 0 7.48 0 0 Z " fill="#000000" transform="translate(155,71)"/>
<path d="M0 0 C0.86936691 -0.00807175 1.73873383 -0.01614349 2.63444519 -0.02445984 C4.47445692 -0.03828676 6.31449416 -0.04901514 8.15454102 -0.05688477 C10.95964494 -0.07409102 13.76356791 -0.11798795 16.56835938 -0.16210938 C18.35806427 -0.17223746 20.14777916 -0.1807532 21.9375 -0.1875 C22.7720723 -0.20500809 23.60664459 -0.22251617 24.46650696 -0.24055481 C29.78477766 -0.2208772 33.13875273 0.42602599 37.16796875 4.23828125 C39.99122649 10.21894928 38.9159299 15.59402873 37.8671875 21.87890625 C37.71135696 22.88290466 37.55552643 23.88690308 37.39497375 24.92132568 C36.89583307 28.11270925 36.37565131 31.30026747 35.85546875 34.48828125 C35.51625741 36.64692829 35.17835279 38.80578111 34.84179688 40.96484375 C34.22071625 44.90651262 33.5983103 48.84789348 32.95581055 52.78613281 C32.8276445 53.5755426 32.69947845 54.36495239 32.56742859 55.17828369 C32.16796875 57.23828125 32.16796875 57.23828125 31.16796875 60.23828125 C17.30796875 60.23828125 3.44796875 60.23828125 -10.83203125 60.23828125 C-11.63640625 54.62828125 -12.44078125 49.01828125 -13.26953125 43.23828125 C-13.5214624 41.48386719 -13.77339355 39.72945312 -14.03295898 37.921875 C-14.23557062 36.50651847 -14.43812938 35.09115438 -14.640625 33.67578125 C-14.79488953 32.60360352 -14.79488953 32.60360352 -14.95227051 31.50976562 C-18.28294961 8.19898174 -18.28294961 8.19898174 -14.51953125 3.11328125 C-9.83741006 -0.15331493 -5.50941683 0.04841246 0 0 Z M5.16796875 14.23828125 C5.16796875 19.18828125 5.16796875 24.13828125 5.16796875 29.23828125 C8.79796875 29.23828125 12.42796875 29.23828125 16.16796875 29.23828125 C16.16796875 24.28828125 16.16796875 19.33828125 16.16796875 14.23828125 C12.53796875 14.23828125 8.90796875 14.23828125 5.16796875 14.23828125 Z " fill="#000000" transform="translate(272.83203125,-0.23828125)"/>
</svg>
