<?xml version="1.0" encoding="UTF-8"?>
<svg version="1.1" xmlns="http://www.w3.org/2000/svg" width="388" height="461">
<path d="M0 0 C5.80512153 0.31467014 5.80512153 0.31467014 8.02734375 1.42578125 C8.21840698 2.35668579 8.21840698 2.35668579 8.41333008 3.30639648 C9.23133428 6.12989331 10.41324954 6.74844953 12.8515625 8.3359375 C13.63337891 8.85091797 14.41519531 9.36589844 15.22070312 9.89648438 C16.04376953 10.42177734 16.86683594 10.94707031 17.71484375 11.48828125 C18.51857422 12.01744141 19.32230469 12.54660156 20.15039062 13.09179688 C23.54426915 15.30350676 26.83509385 17.33398625 30.49609375 19.08203125 C34.18926606 21.0426042 34.73898035 23.56069105 36.02734375 27.42578125 C36.13046875 28.18890625 36.23359375 28.95203125 36.33984375 29.73828125 C36.68015625 30.57359375 36.68015625 30.57359375 37.02734375 31.42578125 C40.02350321 32.73034685 40.02350321 32.73034685 43.02734375 33.42578125 C40.32845663 39.16728169 36.34607543 44.00876046 32.08984375 48.67578125 C21.28317906 61.02625518 20.17392893 72.74733189 21.02734375 88.42578125 C22.35877913 103.8340665 24.15310262 119.34387749 28.390625 134.24609375 C29.2151333 138.36357692 28.91146855 141.65753166 27.02734375 145.42578125 C26.36734375 145.42578125 25.70734375 145.42578125 25.02734375 145.42578125 C24.01371499 148.84885544 23.8293551 152.11869603 23.65234375 155.67578125 C23.38528775 159.6682685 23.04605178 162.95976657 21.40234375 166.61328125 C19.00263111 172.30368894 20.0314021 177.66009943 22.078125 183.34375 C23.73012202 187.29729085 25.47225623 191.20530036 27.24609375 195.10546875 C30.37989902 202.64898572 31.26116519 210.34243636 30.02734375 218.42578125 C27.6549649 222.88952825 25.1554383 225.26407876 20.96484375 227.98828125 C15.64682388 232.07369885 14.83735167 235.44226458 13.8046875 241.89453125 C12.62209567 247.26670718 10.12306253 251.6975329 7.55078125 256.52734375 C5.24531164 260.91364747 4.89167684 264.01900429 4.90234375 268.92578125 C4.90210205 269.59029297 4.90186035 270.25480469 4.90161133 270.93945312 C4.92257618 274.4944341 5.04829708 278.00902084 5.359375 281.55078125 C6.72295217 297.75523754 4.76251878 313.82286591 2.7109375 329.90625 C0.97728922 343.75031088 -0.85585562 362.3861528 5.02734375 375.42578125 C6.34680901 376.77283989 7.67920446 378.10742014 9.02734375 379.42578125 C10.62720466 385.93950069 9.89381052 392.00671564 8.02734375 398.42578125 C6.02734375 401.67578125 6.02734375 401.67578125 4.02734375 404.42578125 C0.87752858 412.39559828 1.6389334 421.14021704 1.54882812 429.58007812 C1.33399807 439.69804992 0.33000672 448.21322041 -5.97265625 456.42578125 C-6.61203125 457.37453125 -7.25140625 458.32328125 -7.91015625 459.30078125 C-9.97265625 461.42578125 -9.97265625 461.42578125 -12.6015625 461.55859375 C-13.77525391 461.49285156 -13.77525391 461.49285156 -14.97265625 461.42578125 C-15.55923899 451.99700686 -14.35406378 442.01225496 -10.22265625 433.42578125 C-8.72240552 429.82517951 -8.84613439 428.12721021 -9.97265625 424.42578125 C-10.94957482 422.74548131 -11.94653676 421.07649521 -12.97265625 419.42578125 C-12.97265625 418.43578125 -12.97265625 417.44578125 -12.97265625 416.42578125 C-13.63265625 416.42578125 -14.29265625 416.42578125 -14.97265625 416.42578125 C-15.95792325 414.19913808 -16.93597069 411.96976808 -17.91015625 409.73828125 C-18.18794922 409.11244141 -18.46574219 408.48660156 -18.75195312 407.84179688 C-23.5307779 396.84474228 -23.30344244 384.52546038 -22.47265625 372.73828125 C-21.91097368 364.24743814 -21.94671528 355.80587036 -22.16015625 347.30078125 C-22.17820313 346.06755127 -22.19625 344.83432129 -22.21484375 343.5637207 C-22.42081256 337.04862531 -23.10623266 332.12374612 -26.08862305 326.31201172 C-27.32078602 323.68298903 -27.4060003 321.42603621 -27.28515625 318.55078125 C-27.26066406 317.64585937 -27.23617187 316.7409375 -27.2109375 315.80859375 C-26.97265625 313.42578125 -26.97265625 313.42578125 -25.97265625 310.42578125 C-26.71768448 308.1731665 -27.54398104 305.94714539 -28.41015625 303.73828125 C-36.70466481 280.71144074 -24.89753338 257.69074809 -15.8828125 236.60546875 C-11.72108653 226.6387602 -14.34708357 216.19548246 -16.91015625 206.11328125 C-19.35972023 196.17293924 -21.14834371 186.99371915 -21.09765625 176.73828125 C-21.09862305 175.857771 -21.09958984 174.97726074 -21.10058594 174.07006836 C-21.08072397 169.15197361 -20.81848922 164.37654355 -20.22265625 159.48828125 C-19.74874683 155.27078128 -19.74874683 155.27078128 -21.84765625 151.55078125 C-22.54890625 150.84953125 -23.25015625 150.14828125 -23.97265625 149.42578125 C-25.56747696 143.20304525 -24.99499113 136.67040272 -24.84570312 130.30078125 C-24.7758846 124.60030392 -25.42911505 119.90863028 -26.97265625 114.42578125 C-27.76178651 107.71817406 -26.43817057 100.98502967 -25.41015625 94.3671875 C-24.92361628 91.59170249 -24.92361628 91.59170249 -24.97265625 89.42578125 C-25.90078125 89.15765625 -26.82890625 88.88953125 -27.78515625 88.61328125 C-32.45286733 86.87433006 -32.45286733 86.87433006 -33.97265625 84.42578125 C-34.30060418 79.17205543 -33.41546499 74.68044777 -31.97265625 69.67578125 C-30.20152703 63.15632446 -29.4550397 57.2123094 -29.97265625 50.42578125 C-30.74351562 50.3071875 -31.514375 50.18859375 -32.30859375 50.06640625 C-36.03065015 49.17136629 -37.49934038 47.28962068 -39.97265625 44.42578125 C-40.56046875 43.03359375 -40.56046875 43.03359375 -41.16015625 41.61328125 C-42.7224403 39.21568823 -42.7224403 39.21568823 -45.02734375 39.18359375 C-46.7599754 39.22137699 -48.4921134 39.28974552 -50.22265625 39.3828125 C-53.01347412 39.42641903 -55.32180237 39.04900472 -58.03515625 38.42578125 C-64.13038688 37.08195088 -70.44601357 35.95717706 -75.97265625 39.42578125 C-78.89967911 43.81631555 -79.08424844 47.49843097 -78.91015625 52.67578125 C-78.86850617 62.93558538 -78.86850617 62.93558538 -80.97265625 67.42578125 C-83.66015625 68.86328125 -83.66015625 68.86328125 -86.97265625 69.42578125 C-92.4742902 70.6589061 -94.91576717 71.62022014 -97.97265625 76.42578125 C-99.35100719 85.43390159 -97.68504224 94.25824336 -95.53125 102.98828125 C-94.75006411 107.79557905 -94.80628523 111.65137721 -97.53125 115.796875 C-98.15128906 116.47878906 -98.77132812 117.16070312 -99.41015625 117.86328125 C-104.05081477 123.5140215 -105.2568638 127.97979097 -104.91015625 135.23828125 C-103.48246483 146.67533103 -100.18562 157.54298119 -95.97265625 168.23046875 C-95.70350906 168.91383301 -95.43436188 169.59719727 -95.15705872 170.30126953 C-93.79549979 173.73826423 -92.40818404 177.16240865 -90.98706055 180.57519531 C-86.78166016 190.83024055 -85.49735393 197.83647894 -89.41015625 208.23828125 C-93.43055501 219.44359433 -94.34436239 226.34871072 -89.359375 237.53125 C-88.42103393 239.48987179 -87.41127616 241.41558298 -86.33984375 243.3046875 C-84.72940765 246.98108305 -84.39693307 250.22346813 -84.41015625 254.17578125 C-84.41112305 254.88677979 -84.41208984 255.59777832 -84.41308594 256.33032227 C-84.60192507 262.01554425 -86.1314943 265.1618619 -89.3828125 269.66015625 C-91.83725363 273.92979832 -92.63540546 278.47911559 -93.59082031 283.27514648 C-94.2983235 286.77240793 -95.09830032 289.93516507 -96.5625 293.19921875 C-99.4662356 299.84322319 -97.8961293 306.03442423 -96.47265625 312.86328125 C-93.92768002 325.31079686 -94.44207435 337.46116778 -96.4609375 349.9609375 C-98.78897382 365.72405367 -100.34268585 384.48571989 -95.640625 399.828125 C-94.56403307 404.01487138 -94.71645773 408.13682824 -94.97265625 412.42578125 C-99.02522143 412.23728985 -100.60966609 411.78988487 -103.51953125 408.87109375 C-106.25230249 405.38702927 -107.49197819 401.68581205 -108.53515625 397.42578125 C-108.73931152 396.63268555 -108.9434668 395.83958984 -109.15380859 395.02246094 C-111.38545031 385.73119 -112.47074524 376.22930883 -113.54125977 366.74609375 C-114.64046849 356.6179647 -114.64046849 356.6179647 -119.25366211 347.70556641 C-123.8030626 341.42845267 -123.68094671 335.63514079 -123.66015625 328.05078125 C-123.24098764 313.06503268 -123.24098764 313.06503268 -129.03515625 299.73828125 C-131.97709371 296.03388567 -132.86781724 293.19345997 -132.97265625 288.42578125 C-132.04804042 285.5696025 -130.68516625 283.0402683 -129.22265625 280.42578125 C-128.49682213 279.07261908 -127.77284509 277.71845904 -127.05078125 276.36328125 C-126.69862549 275.70932373 -126.34646973 275.05536621 -125.98364258 274.3815918 C-119.47391329 261.78815027 -120.18574572 250.87476802 -123.97265625 237.42578125 C-124.34861938 236.49161377 -124.34861938 236.49161377 -124.73217773 235.53857422 C-127.98990901 227.20818712 -127.40767127 218.6159241 -127.41210938 209.79296875 C-127.54147593 200.99604292 -128.948249 193.67610775 -131.97265625 185.42578125 C-132.21862549 184.69649414 -132.46459473 183.96720703 -132.71801758 183.21582031 C-135.67652816 174.5261105 -139.62098587 167.45187497 -145.1171875 160.1328125 C-148.6673562 154.95330322 -148.54145707 149.54039009 -147.97265625 143.42578125 C-146.35214001 135.62264327 -143.90412649 128.08789512 -141.34765625 120.55078125 C-136.00539896 104.99761892 -136.00539896 104.99761892 -138.53515625 89.17578125 C-140.16491427 86.31645491 -142.08121644 84.23572038 -144.47265625 81.98828125 C-150.35508943 76.37093626 -152.05380436 70.76990453 -152.41015625 62.73828125 C-152.65572804 57.35299531 -152.65572804 57.35299531 -155.16015625 52.73828125 C-161.13706326 47.82393548 -167.69369797 48.06273085 -175.09765625 47.86328125 C-177.05871118 47.80319678 -179.01966057 47.73953482 -180.98046875 47.671875 C-181.8430127 47.64794678 -182.70555664 47.62401855 -183.59423828 47.59936523 C-185.84892252 47.4348117 -187.78926969 46.98035177 -189.97265625 46.42578125 C-191.55833464 46.28361115 -193.14784257 46.18074084 -194.73828125 46.109375 C-195.62773437 46.06748047 -196.5171875 46.02558594 -197.43359375 45.98242188 C-198.81417969 45.92344727 -198.81417969 45.92344727 -200.22265625 45.86328125 C-201.15851563 45.82009766 -202.094375 45.77691406 -203.05859375 45.73242188 C-205.36314266 45.62660075 -207.66779464 45.52451568 -209.97265625 45.42578125 C-209.97265625 41.42578125 -209.97265625 41.42578125 -208.4375 39.828125 C-205.2753607 38.02906318 -202.00721978 36.99883795 -198.53515625 35.98828125 C-197.09370467 35.55614075 -195.65229902 35.12384704 -194.2109375 34.69140625 C-193.49502441 34.47935547 -192.77911133 34.26730469 -192.04150391 34.04882812 C-190.1711213 33.48555028 -188.31133587 32.88737331 -186.453125 32.28515625 C-175.24720581 28.65373383 -164.44493126 27.23562304 -152.734375 26.76953125 C-147.84580494 26.32280834 -143.5302876 25.68872559 -139.66015625 22.55078125 C-134.81084711 18.71644379 -129.4646463 16.55249261 -123.28515625 16.23828125 C-119.71308289 17.51883585 -119.30001175 18.14429462 -117.09765625 20.98828125 C-114.39493518 24.01655736 -113.20642615 24.40450819 -109.06640625 24.78125 C-106.81620949 24.76250044 -104.57631904 24.67483318 -102.32836914 24.57495117 C-96.51712492 24.32838265 -92.34057909 24.97725504 -86.97265625 27.42578125 C-85.98265625 28.41578125 -85.98265625 28.41578125 -84.97265625 29.42578125 C-79.32296486 29.18240993 -74.60640129 26.56274633 -69.59765625 24.17578125 C-55.04459925 17.46538092 -40.18915272 13.66900434 -24.671875 9.8359375 C-22.7720832 9.36609652 -20.87233971 8.8960601 -18.97265625 8.42578125 C-18.1832666 8.23097168 -17.39387695 8.03616211 -16.58056641 7.83544922 C-14.60292763 7.34025386 -12.63119521 6.82162574 -10.66015625 6.30078125 C-9.08814453 5.89472656 -9.08814453 5.89472656 -7.484375 5.48046875 C-4.13648766 4.07466847 -3.40017521 0.7338992 0 0 Z " fill="#000000" transform="translate(218.97265625,-0.42578125)"/>
<path d="M0 0 C3.75 0.0625 3.75 0.0625 6.09765625 0.484375 C9.15977268 1.06669134 9.15977268 1.06669134 12.93359375 1.390625 C13.63323242 1.46015381 14.33287109 1.52968262 15.05371094 1.60131836 C16.44797894 1.73930941 17.84319331 1.86812938 19.23925781 1.98657227 C24.91132224 2.61456076 28.56264972 4.67212881 32.65234375 8.578125 C39.55578609 17.55889498 43.77110995 28.8136618 46.375 39.75 C46.96960337 42.23558365 46.96960337 42.23558365 48.75 45.125 C50.59254715 49.36285844 50.38734892 52.61626346 49 57 C47.52373047 59.50266995 45.85177306 61.75891594 44.1015625 64.078125 C37.0928963 73.82251592 31.80116162 84.63875027 28 96 C27.63132812 97.09183594 27.26265625 98.18367188 26.8828125 99.30859375 C22.83153096 111.86165226 21.58329077 123.90665724 21 137 C21.62390625 137.29777344 22.2478125 137.59554687 22.890625 137.90234375 C25.61822257 139.32170471 26.58512465 140.24099307 28 143 C29.32749547 149.79619965 26.93273233 154.94422619 24.1875 161.06640625 C22.16163223 166.07109934 21.42770808 170.60677924 22.6875 175.875 C24.1563213 178.25309163 25.73042422 179.41129696 28 181 C28 181.66 28 182.32 28 183 C28.90492188 183.35384766 28.90492188 183.35384766 29.828125 183.71484375 C33.94810603 186.15274619 35.41428605 190.64398736 37 195 C38.79382495 204.06111579 34.06866164 211.97046737 30.08203125 219.80078125 C25.14249584 229.84034239 22.81845861 236.33501951 25.5625 247.375 C27.16201704 253.97774571 27.94874324 259.61690259 24.4609375 265.671875 C22.54436572 270.037969 22.63279469 273.60430923 22.75 278.3125 C22.76095703 279.22040283 22.77191406 280.12830566 22.78320312 281.0637207 C22.91217055 289.33656026 23.28098421 297.60211737 23.63696289 305.86767578 C23.90952049 312.30766477 24.1334865 318.74166422 24.1875 325.1875 C24.20683594 326.2552063 24.20683594 326.2552063 24.2265625 327.34448242 C24.24082702 334.68803464 22.26242224 339.05150335 17.6875 344.6875 C11.8605827 352.22214507 7.08221345 360.47756584 6.75390625 370.1875 C6.72103516 370.96867187 6.68816406 371.74984375 6.65429688 372.5546875 C6.59310428 374.18475407 6.53581163 375.81497171 6.48242188 377.4453125 C6.44826172 378.22648437 6.41410156 379.00765625 6.37890625 379.8125 C6.34132202 380.87404297 6.34132202 380.87404297 6.30297852 381.95703125 C5.95759135 384.28595938 5.14704636 385.95774692 4 388 C1.5316746 387.64294664 0.33562642 387.42938872 -1.23046875 385.42578125 C-4.80659452 377.52911169 -6.44807472 368.13812733 -3.9375 359.6875 C-1.82970325 352.28210741 -3.61190084 342.16429747 -6 335 C-7.11627252 317.52393018 -7.11627252 317.52393018 -2 310 C0.47717167 306.28424249 0.30345742 304.40013262 0 300 C-0.495 298.824375 -0.495 298.824375 -1 297.625 C-2.89514733 292.65023827 -2.81038521 288.12798995 -0.9140625 283.1484375 C-0.04063794 281.27537096 0.86503301 279.41685876 1.80859375 277.578125 C3.91396541 273.02223879 4.11659511 268.79052703 4.0625 263.81640625 C4.05089844 262.05393555 4.05089844 262.05393555 4.0390625 260.25585938 C4.01306214 257.7975256 3.98702061 255.33919227 3.9609375 252.88085938 C3.94933594 251.11645508 3.94933594 251.11645508 3.9375 249.31640625 C3.92589844 248.24849854 3.91429687 247.18059082 3.90234375 246.08032227 C4.00107019 242.96624353 4.44297361 240.06163177 5 237 C5.7044329 224.97549418 5.73519588 211.58206473 -0.94921875 201.26953125 C-4.06672522 194.53618084 -2.22050856 186.17743586 -0.4609375 179.25390625 C0.73005808 173.43013972 0.93272947 167.97308156 -1.625 162.5625 C-4.17996561 159.80582658 -6.81855762 157.97956414 -10 156 C-11.47759435 153.04481129 -11.1909176 150.05162187 -11.1875 146.8125 C-11.18741943 146.10722168 -11.18733887 145.40194336 -11.18725586 144.67529297 C-11.00048606 127.00097212 -11.00048606 127.00097212 -8 121 C-8.763125 120.9175 -9.52625 120.835 -10.3125 120.75 C-13 120 -13 120 -14.875 118.375 C-16.59359117 114.74686309 -16.16670268 112.8241921 -15 109 C-12.45971673 105.80089015 -9.6798175 102.83990875 -6 101 C-5.94465088 99.8354126 -5.88930176 98.6708252 -5.83227539 97.47094727 C-5.62451361 93.1153384 -5.41301655 88.7599173 -5.20043945 84.40454102 C-5.10926424 82.52600884 -5.01907748 80.6474284 -4.92993164 78.76879883 C-4.80099494 76.05536562 -4.66840464 73.34213074 -4.53515625 70.62890625 C-4.47727684 69.38615685 -4.47727684 69.38615685 -4.41822815 68.11830139 C-4.14822115 62.71254829 -3.64323991 57.37446975 -3 52 C-12.23323353 46.95503735 -19.89331567 43.74036817 -30.484375 44.1796875 C-37.48304887 44.21723403 -43.59808411 42.53405693 -50.25 40.5 C-51.38824219 40.16613281 -52.52648437 39.83226562 -53.69921875 39.48828125 C-56.47074345 38.67312693 -59.23703839 37.84363282 -62 37 C-60.86104597 31.89075307 -58.30172546 29.87275298 -54 27 C-45.33625445 22.49738187 -35.85035794 19.83149172 -26.16796875 18.65625 C-21.23301164 18.08989736 -21.23301164 18.08989736 -17.3671875 15.23828125 C-16.41162019 13.825817 -15.47792185 12.3983166 -14.56640625 10.95703125 C-12.23122575 8.03951148 -9.45695934 7.21149497 -6.0234375 5.9453125 C-3.69459459 5.05989104 -3.69459459 5.05989104 -2 2.1875 C-1.34 1.465625 -0.68 0.74375 0 0 Z " fill="#000000" transform="translate(324,16)"/>
<path d="" fill="#FFFFFF" transform="translate(0,0)"/>
<path d="" fill="#FFFFFF" transform="translate(0,0)"/>
<path d="" fill="#FFFFFF" transform="translate(0,0)"/>
<path d="" fill="#FFFFFF" transform="translate(0,0)"/>
<path d="" fill="#FFFFFF" transform="translate(0,0)"/>
<path d="" fill="#FFFFFF" transform="translate(0,0)"/>
<path d="" fill="#FFFFFF" transform="translate(0,0)"/>
<path d="" fill="#FFFFFF" transform="translate(0,0)"/>
<path d="" fill="#FFFFFF" transform="translate(0,0)"/>
<path d="" fill="#FFFFFF" transform="translate(0,0)"/>
<path d="" fill="#FFFFFF" transform="translate(0,0)"/>
<path d="" fill="#FFFFFF" transform="translate(0,0)"/>
<path d="" fill="#FFFFFF" transform="translate(0,0)"/>
<path d="" fill="#FFFFFF" transform="translate(0,0)"/>
<path d="" fill="#FFFFFF" transform="translate(0,0)"/>
<path d="" fill="#FFFFFF" transform="translate(0,0)"/>
<path d="" fill="#FFFFFF" transform="translate(0,0)"/>
<path d="" fill="#FFFFFF" transform="translate(0,0)"/>
<path d="" fill="#FFFFFF" transform="translate(0,0)"/>
<path d="" fill="#FFFFFF" transform="translate(0,0)"/>
<path d="" fill="#FFFFFF" transform="translate(0,0)"/>
<path d="" fill="#FFFFFF" transform="translate(0,0)"/>
<path d="" fill="#FFFFFF" transform="translate(0,0)"/>
<path d="" fill="#FFFFFF" transform="translate(0,0)"/>
<path d="" fill="#FFFFFF" transform="translate(0,0)"/>
<path d="" fill="#FFFFFF" transform="translate(0,0)"/>
<path d="" fill="#FFFFFF" transform="translate(0,0)"/>
<path d="" fill="#FFFFFF" transform="translate(0,0)"/>
<path d="" fill="#FFFFFF" transform="translate(0,0)"/>
<path d="" fill="#FFFFFF" transform="translate(0,0)"/>
<path d="" fill="#FFFFFF" transform="translate(0,0)"/>
<path d="" fill="#FFFFFF" transform="translate(0,0)"/>
<path d="" fill="#FFFFFF" transform="translate(0,0)"/>
<path d="" fill="#FFFFFF" transform="translate(0,0)"/>
<path d="" fill="#FFFFFF" transform="translate(0,0)"/>
<path d="" fill="#FFFFFF" transform="translate(0,0)"/>
<path d="" fill="#FFFFFF" transform="translate(0,0)"/>
<path d="" fill="#FFFFFF" transform="translate(0,0)"/>
<path d="" fill="#FFFFFF" transform="translate(0,0)"/>
<path d="" fill="#FFFFFF" transform="translate(0,0)"/>
<path d="" fill="#FFFFFF" transform="translate(0,0)"/>
<path d="" fill="#FFFFFF" transform="translate(0,0)"/>
<path d="" fill="#FFFFFF" transform="translate(0,0)"/>
<path d="" fill="#FFFFFF" transform="translate(0,0)"/>
<path d="" fill="#FFFFFF" transform="translate(0,0)"/>
<path d="" fill="#FFFFFF" transform="translate(0,0)"/>
<path d="" fill="#FFFFFF" transform="translate(0,0)"/>
<path d="" fill="#FFFFFF" transform="translate(0,0)"/>
<path d="" fill="#FFFFFF" transform="translate(0,0)"/>
<path d="" fill="#FFFFFF" transform="translate(0,0)"/>
<path d="" fill="#FFFFFF" transform="translate(0,0)"/>
<path d="" fill="#FFFFFF" transform="translate(0,0)"/>
<path d="" fill="#FFFFFF" transform="translate(0,0)"/>
<path d="" fill="#FFFFFF" transform="translate(0,0)"/>
<path d="" fill="#FFFFFF" transform="translate(0,0)"/>
</svg>
