<?xml version="1.0" encoding="UTF-8"?>
<svg version="1.1" xmlns="http://www.w3.org/2000/svg" width="512" height="512">
<path d="M0 0 C1.01545898 0.19867676 2.03091797 0.39735352 3.07714844 0.60205078 C52.28119294 10.44433418 94.81294349 33.53108627 131 68 C131.54978516 68.52110352 132.09957031 69.04220703 132.66601562 69.57910156 C140.39055935 76.94510301 147.27170824 84.65637933 153.65722656 93.20849609 C155.00207029 95.00276214 156.3702424 96.77718437 157.7421875 98.55078125 C183.97808596 132.87213194 200.10742447 175.21465144 205 218 C205.0942627 218.79116211 205.18852539 219.58232422 205.28564453 220.39746094 C209.92418121 264.16068533 204.46055774 314.38597783 182.8984375 353.2890625 C180.49190878 360.55050133 184.38265103 368.75645034 186.76171875 375.625 C187.14456528 376.74964661 187.5274118 377.87429321 187.92185974 379.03302002 C189.16952602 382.69130977 190.42831428 386.345661 191.6875 390 C192.33278238 391.88635112 192.97806186 393.77270337 193.62252045 395.65933609 C199.62351383 413.22602864 205.70890534 430.76401234 211.8972168 448.265625 C212.17074478 449.04073425 212.44427277 449.81584351 212.72608948 450.61444092 C213.22819249 452.03629675 213.73183551 453.45761022 214.2374115 454.87823486 C217.70410172 464.69584686 219.13215159 476.56941216 215.375 486.5625 C210.46384445 496.67673294 202.87614681 504.44096817 192.1315918 508.23291016 C180.00269451 511.20390846 168.39588706 508.5821577 156.9375 504.375 C155.46873326 503.85948047 153.99895653 503.34683187 152.52832031 502.83666992 C149.09921732 501.64271657 145.67597377 500.43341947 142.25537109 499.21533203 C131.1340535 495.26445461 119.97248018 491.42758414 108.81476879 487.58096313 C104.45890094 486.07840118 100.10668187 484.56582521 95.75724316 483.04475689 C93.00037159 482.08207646 90.2412924 481.12584086 87.48171043 480.17096138 C85.5674321 479.50627013 83.65590238 478.83367954 81.74446106 478.16087341 C72.01847276 474.47459842 72.01847276 474.47459842 61.83618164 474.49389648 C61.00654907 474.92810913 61.00654907 474.92810913 60.16015625 475.37109375 C59.50305664 475.69424561 58.84595703 476.01739746 58.16894531 476.3503418 C57.12625488 476.88848511 57.12625488 476.88848511 56.0625 477.4375 C5.21293318 501.71542215 -56.03778867 504.1968645 -110 490 C-110.84369141 489.77973145 -111.68738281 489.55946289 -112.55664062 489.33251953 C-139.682454 482.09931949 -166.31303391 469.56529874 -189 453 C-189.54769043 452.60103516 -190.09538086 452.20207031 -190.65966797 451.79101562 C-194.51632298 448.95419861 -198.28050887 446.01399341 -202 443 C-202.54978516 442.55462891 -203.09957031 442.10925781 -203.66601562 441.65039062 C-217.38199603 430.43397759 -230.18501424 418.05742931 -241 404 C-241.77214844 403.04480469 -242.54429687 402.08960938 -243.33984375 401.10546875 C-277.99233066 357.58457286 -295.49865547 303.00808783 -295.375 247.6875 C-295.37412384 246.72433868 -295.37324768 245.76117737 -295.37234497 244.76882935 C-295.19121884 184.14046151 -273.00082073 122.80173445 -230.59375 78.7109375 C-228.48716122 76.50917152 -226.51040358 74.27689401 -224.5625 71.9375 C-192.34292155 35.00474581 -142.25430075 10.79249299 -95 1 C-93.98389648 0.78827148 -92.96779297 0.57654297 -91.92089844 0.35839844 C-62.67101491 -5.42558041 -29.26566464 -5.93741975 0 0 Z M-103.90625 150.49609375 C-115.60002768 164.48063012 -122.89222654 182.79626803 -122.33984375 201.11328125 C-121.81640555 205.55949767 -120.92790776 207.55970838 -118 211 C-114.22154778 213.8672768 -110.6544119 215.36623846 -105.875 215 C-101.89888647 214.21102659 -99.09391701 212.66220766 -96 210 C-93.07018484 205.18673223 -92.36983412 200.83714246 -91.6875 195.375 C-89.82493238 182.74494437 -84.81755602 171.88392684 -74.42578125 164.0625 C-65.59955802 158.15373131 -57.68308715 155.43499583 -47.0625 155.5625 C-46.18368164 155.56934814 -45.30486328 155.57619629 -44.39941406 155.58325195 C-37.91083063 155.74408112 -32.65138324 156.64821992 -27 160 C-26.27683594 160.40863281 -25.55367188 160.81726563 -24.80859375 161.23828125 C-22.81538581 162.42392796 -20.90702532 163.68140366 -19 165 C-18.154375 165.556875 -17.30875 166.11375 -16.4375 166.6875 C-7.59753018 175.07413804 -2.65759701 186.06379255 -1.96875 198.1875 C-2.11557946 211.40215119 -6.31542801 223.26320457 -15.5390625 232.80859375 C-19.37235736 236.22205155 -23.40779325 238.73400946 -28 241 C-28.62132812 241.31582031 -29.24265625 241.63164062 -29.8828125 241.95703125 C-34.30856978 243.90168217 -38.79669315 244.39445738 -43.5625 244.9375 C-51.44354118 245.90749159 -51.44354118 245.90749159 -58 250 C-62.91831256 257.34832661 -62.58711481 264.54750108 -62.53125 273.15625 C-62.5339497 274.62781022 -62.53783608 276.09936869 -62.54284668 277.57092285 C-62.5487194 280.64397285 -62.54025166 283.71655544 -62.52148438 286.78955078 C-62.49869535 290.71017928 -62.51183055 294.6297122 -62.53577423 298.5503006 C-62.55029316 301.58571488 -62.54559859 304.6208734 -62.53526306 307.65629578 C-62.53261254 309.10105014 -62.535806 310.54582844 -62.54518127 311.99055481 C-62.58580279 320.00795553 -62.57026708 326.2412702 -58 333 C-54.59616103 335.88552885 -51.40788678 337.22647729 -46.9375 337.5 C-41.3228289 336.78702589 -38.51775316 334.59979387 -34.6875 330.5625 C-32.0259324 326.52086031 -31.87444438 322.5944699 -31.88647461 317.8425293 C-31.88655014 316.84186935 -31.88662567 315.84120941 -31.88670349 314.81022644 C-31.89186478 313.7423439 -31.89702606 312.67446136 -31.90234375 311.57421875 C-31.9037587 310.47149124 -31.90517365 309.36876373 -31.90663147 308.23262024 C-31.91221996 304.71755233 -31.92477041 301.20254859 -31.9375 297.6875 C-31.94251648 295.30143321 -31.94707913 292.91536543 -31.95117188 290.52929688 C-31.96218563 284.6861761 -31.97891236 278.84309263 -32 273 C-30.01266988 272.76806641 -28.02533976 272.53613281 -26.03800964 272.30419922 C-10.43869898 269.97580095 4.92372471 256.46183779 14.0625 244.2421875 C25.79667396 226.48919155 30.56903667 206.59422158 26.9375 185.5625 C23.88156267 171.97423913 18.05472572 160.55857003 9 150 C8.38640625 149.27425781 7.7728125 148.54851562 7.140625 147.80078125 C-6.14736063 133.34867722 -24.99242618 126.46069111 -44.125 124.71484375 C-67.3274346 123.98976767 -87.99817478 133.92518206 -103.90625 150.49609375 Z M-58.875 365.6875 C-61.37752796 369.58849947 -62.43317359 372.37370611 -62 377 C-60.66211811 381.5421916 -58.7354923 384.37643044 -55.125 387.4375 C-50.32681903 389.83659049 -47.62528312 390.5132473 -42.4375 388.875 C-37.53029634 386.19834346 -34.24730585 383.58826353 -32.5 378.1875 C-31.5849254 373.57726702 -32.6117403 369.99522999 -35 366 C-42.55618049 358.44381951 -51.18533975 358.49933933 -58.875 365.6875 Z " fill="#000000" transform="translate(295,3)"/>
</svg>
