<?xml version="1.0" encoding="UTF-8"?>
<svg version="1.1" xmlns="http://www.w3.org/2000/svg" width="512" height="512">
<path d="M0 0 C1.31319717 -0.00686325 2.62639435 -0.0137265 3.97938538 -0.02079773 C7.56211789 -0.03865896 11.14460455 -0.03757417 14.72736812 -0.03185534 C17.72673013 -0.0287533 20.72604561 -0.03486718 23.72540098 -0.04089409 C30.80525503 -0.05491455 37.88498835 -0.05339871 44.96484375 -0.04199219 C52.25061603 -0.03051276 59.53602013 -0.04458911 66.82174391 -0.07138866 C73.09463166 -0.09359234 79.36740423 -0.10017259 85.64032847 -0.09431225 C89.37915881 -0.09095266 93.1177532 -0.09329083 96.85655022 -0.11056328 C101.02829952 -0.12899688 105.1993389 -0.11479754 109.37109375 -0.09765625 C110.59786835 -0.10732422 111.82464294 -0.11699219 113.08859253 -0.12695312 C120.82771351 -0.0604915 127.79330408 0.65004073 133.62571621 6.18334293 C137.9389636 10.93476057 139.99508961 14.71126535 140.0243988 21.22210693 C140.03437393 22.41085419 140.04434906 23.59960144 140.05462646 24.82437134 C140.05529114 26.12522675 140.05595581 27.42608215 140.05664062 28.76635742 C140.06426393 30.15296881 140.07269172 31.53957597 140.0818634 32.92617798 C140.10380175 36.69082919 140.11260668 40.45539917 140.11768985 44.22010708 C140.12133498 46.57404732 140.12757593 48.92796635 140.13469124 51.2818985 C140.15918588 59.4997094 140.17223713 67.7174572 140.17578125 75.93530273 C140.17941395 83.58572731 140.20928993 91.23575007 140.25118583 98.88605189 C140.28592635 105.46116401 140.30133036 112.03614324 140.30202729 118.61134648 C140.30281899 122.53528317 140.3115076 126.45881072 140.34002495 130.38265228 C140.36626979 134.07645328 140.36837591 137.76950787 140.35236931 141.46335983 C140.34970046 143.45616102 140.37169603 145.44894808 140.39456177 147.44161987 C140.32707432 155.73634597 139.06350174 160.88459083 133.30751705 166.91575241 C128.50826084 171.29289057 123.42740745 172.92323238 116.96118164 172.71264648 C109.82402353 171.71647071 104.39042076 168.90090192 99.90649414 163.28295898 C96.93105019 158.44786257 96.44792335 154.07829278 96.43139648 148.49267578 C96.42135086 147.71166 96.41130524 146.93064423 96.4009552 146.1259613 C96.37017448 143.55590521 96.3531024 140.98595305 96.33618164 138.41577148 C96.31746587 136.62928883 96.29789215 134.84281497 96.27749634 133.05635071 C96.22621234 128.36287632 96.18656664 123.66937328 96.14935303 118.97576904 C96.10928999 114.18291153 96.05820813 109.3901728 96.00805664 104.59741211 C95.91134154 95.19970915 95.8269226 85.80193905 95.75024414 76.40405273 C94.8951016 77.26196065 94.03995907 78.11986856 93.15890312 79.00377369 C72.85835972 99.36929325 52.55006199 119.72705776 32.23219698 140.07529588 C29.73131962 142.57992536 27.23050774 145.08462021 24.72973633 147.58935547 C23.98294812 148.33732407 23.98294812 148.33732407 23.22107328 149.10040315 C15.16040641 157.17412326 7.10505566 165.25312741 -0.94834222 173.33409748 C-9.21224055 181.62605228 -17.48182777 189.91230141 -25.75672138 198.19328374 C-30.40424594 202.84472276 -35.04908419 207.49877536 -39.6876564 212.15914345 C-44.05265751 216.54448864 -48.42462743 220.92276221 -52.80206871 225.29568863 C-54.40829422 226.90274026 -56.01194558 228.51236943 -57.61282921 230.12474251 C-59.79777282 232.32459709 -61.99176219 234.51501705 -64.18826294 236.70332336 C-64.82057426 237.34437321 -65.45288557 237.98542305 -66.10435784 238.64589864 C-71.56892932 244.05548925 -76.23176119 246.83373652 -84.12475586 246.90405273 C-85.27717773 246.93499023 -86.42959961 246.96592773 -87.61694336 246.99780273 C-96.44574816 245.55481528 -102.46946177 238.60418798 -108.51147461 232.48291016 C-109.40021774 231.5946051 -110.28896088 230.70630005 -111.20463562 229.79107666 C-113.62074492 227.37324527 -116.03003757 224.94898974 -118.43645477 222.52153563 C-120.96010952 219.97902569 -123.49236048 217.44510576 -126.02368164 214.91023254 C-130.80708151 210.11753805 -135.58278755 205.31725345 -140.35572433 200.51414138 C-145.79360697 195.042634 -151.2400918 189.57972365 -156.68728828 184.11749113 C-167.884324 172.88916495 -179.07059838 161.65018071 -190.24975586 150.40405273 C-194.81831135 154.22362142 -199.15765442 158.17546718 -203.33918762 162.41360474 C-203.90981027 162.98760635 -204.48043291 163.56160797 -205.06834716 164.15300357 C-206.96042126 166.05737892 -208.84882452 167.96535223 -210.73730469 169.87329102 C-212.10114005 171.24724164 -213.46524746 172.62092226 -214.8296051 173.99435425 C-217.75813568 176.94293028 -220.68532389 179.89283029 -223.61164284 182.84360123 C-228.24330596 187.51277285 -232.8815618 192.17535694 -237.52140808 196.83639526 C-238.30588044 197.62450502 -239.09035281 198.41261477 -239.89859706 199.22460663 C-241.50215369 200.83556838 -243.10572667 202.44651385 -244.70931566 204.05744338 C-255.50376057 214.9017885 -266.29391136 225.7503088 -277.06542969 236.61743164 C-284.34204878 243.9585361 -291.62929708 251.2889032 -298.92894953 258.60710704 C-302.78704004 262.47585961 -306.63949763 266.34986993 -310.47898293 270.23709488 C-314.08994356 273.89279324 -317.71476559 277.53415529 -321.35053062 281.16518021 C-322.67877318 282.4966592 -324.00190351 283.83326166 -325.3193512 285.17542267 C-339.97402192 300.09238947 -339.97402192 300.09238947 -351.31225586 300.90405273 C-358.98238741 299.93006778 -364.22827579 297.24009612 -369.05834961 291.18530273 C-371.91415713 286.9156364 -372.59063521 283.86020058 -372.68725586 278.65405273 C-372.7272168 277.48358398 -372.76717773 276.31311523 -372.80834961 275.10717773 C-371.62169902 267.24043116 -365.94809239 261.66081316 -360.47624207 256.23612976 C-359.80791188 255.56170847 -359.1395817 254.88728718 -358.45099908 254.19242889 C-356.22585436 251.9507312 -353.99023295 249.71979768 -351.75439453 247.48876953 C-350.1502874 245.87731784 -348.54680299 244.26524607 -346.94389343 242.65260315 C-342.59975364 238.28628474 -338.2460569 233.92961797 -333.88986754 229.57532477 C-330.25147508 225.93705213 -326.61743674 222.29444535 -322.98327142 218.65195113 C-313.92074145 209.56910404 -304.84862359 200.49591437 -295.77233467 191.42682151 C-287.89741135 183.55747723 -280.03578386 175.67499966 -272.18021377 167.78634014 C-264.10313473 159.67550443 -256.01656791 151.57426545 -247.92051679 143.48236018 C-243.37959701 138.94350833 -238.84253614 134.40095966 -234.31490135 129.84885216 C-230.05865105 125.5703563 -225.79052796 121.30407228 -221.51298714 117.04686546 C-219.94617816 115.48346979 -218.38361744 113.91580312 -216.82567596 112.34357071 C-214.69657127 110.19629019 -212.55259298 108.06503559 -210.40422058 105.9370575 C-209.79281839 105.31313746 -209.1814162 104.68921742 -208.55148667 104.04639071 C-203.41892678 99.01756195 -198.63035877 96.78573371 -191.37475586 95.96655273 C-181.20032401 96.46913826 -174.46757418 102.32717389 -167.66918945 109.3034668 C-166.32100632 110.65033569 -166.32100632 110.65033569 -164.94558716 112.02441406 C-162.50289211 114.46540096 -160.07902951 116.92432015 -157.65833998 119.38710499 C-155.11745224 121.96572567 -152.55934409 124.52715092 -150.00308228 127.09051514 C-145.17468716 131.93749317 -140.36177995 136.79954803 -135.55436671 141.66732764 C-130.07648608 147.21247829 -124.58137792 152.74042194 -119.0848186 158.26704836 C-107.78730529 169.62712807 -96.51141656 181.0084232 -85.24975586 192.40405273 C-81.10723976 190.77108495 -78.33511874 187.76230533 -75.26397705 184.65878296 C-74.66844426 184.06495902 -74.07291147 183.47113508 -73.45933223 182.85931647 C-71.46313895 180.86641991 -69.47418234 178.86645453 -67.48510742 176.86645508 C-66.05639371 175.43717729 -64.6272396 174.00833962 -63.19767761 172.57991028 C-59.31544767 168.698255 -55.43942225 164.8104568 -51.56446171 160.92154646 C-47.51478648 156.85938285 -43.45946038 152.80286876 -39.40472412 148.74575806 C-31.72620407 141.06101767 -24.05279721 133.37119249 -16.38120341 125.67953837 C-7.64761212 116.9236053 1.09164757 108.17333929 9.83139372 99.42355037 C27.81066901 81.42336055 45.78279558 63.41604723 63.75024414 45.40405273 C62.80778839 45.4004071 61.86533264 45.39676147 60.89431763 45.39300537 C51.97924625 45.35594103 43.06451665 45.29804434 34.14970589 45.22014999 C29.56731941 45.18076952 24.98512239 45.14853506 20.40258789 45.13305664 C15.97381755 45.11782758 11.54556839 45.0832724 7.1170311 45.03574371 C5.43394394 45.02099401 3.75078234 45.01301543 2.06763077 45.01216888 C-18.2084333 44.99172908 -18.2084333 44.99172908 -25.17233276 38.65447998 C-30.61379637 32.83182231 -31.7161101 27.23919995 -31.56225586 19.41186523 C-30.94144134 13.43652547 -28.64217105 9.82811373 -24.49975586 5.59155273 C-16.47722042 0.19176926 -9.43410282 -0.0345614 0 0 Z " fill="#000000" transform="translate(372.249755859375,105.595947265625)"/>
</svg>
